<svg width="24" height="24" viewBox="0 0 24 24" fill="none" xmlns="http://www.w3.org/2000/svg">
<path d="M12 1C5.925 1 1 5.925 1 12C1 18.075 5.925 23 12 23C18.075 23 23 18.075 23 12C23 5.925 18.075 1 12 1ZM12 3C17.025 3 21 6.975 21 12C21 17.025 17.025 21 12 21C6.975 21 3 17.025 3 12C3 6.975 6.975 3 12 3ZM9.5 8C9.5 8.82843 8.82843 9.5 8 9.5C7.17157 9.5 6.5 8.82843 6.5 8C6.5 7.17157 7.17157 6.5 8 6.5C8.82843 6.5 9.5 7.17157 9.5 8ZM17.5 8C17.5 8.82843 16.8284 9.5 16 9.5C15.1716 9.5 14.5 8.82843 14.5 8C14.5 7.17157 15.1716 6.5 16 6.5C16.8284 6.5 17.5 7.17157 17.5 8ZM12 13C14.7614 13 17 14.7909 17 17C17 19.2091 14.7614 21 12 21C9.23858 21 7 19.2091 7 17C7 14.7909 9.23858 13 12 13Z" fill="currentColor"/>
</svg>