<svg width="24" height="24" viewBox="0 0 24 24" fill="none" xmlns="http://www.w3.org/2000/svg">
<path d="M12 2C6.48 2 2 6.48 2 12C2 17.52 6.48 22 12 22C17.52 22 22 17.52 22 12C22 6.48 17.52 2 12 2ZM12 4C16.42 4 20 7.58 20 12C20 16.42 16.42 20 12 20C7.58 20 4 16.42 4 12C4 7.58 7.58 4 12 4ZM9.5 9.5C9.5 10.33 8.83 11 8 11C7.17 11 6.5 10.33 6.5 9.5C6.5 8.67 7.17 8 8 8C8.83 8 9.5 8.67 9.5 9.5ZM17.5 9.5C17.5 10.33 16.83 11 16 11C15.17 11 14.5 10.33 14.5 9.5C14.5 8.67 15.17 8 16 8C16.83 8 17.5 8.67 17.5 9.5ZM12 14C14.21 14 16.12 15.42 16.86 17.5H7.14C7.88 15.42 9.79 14 12 14Z" fill="currentColor"/>
</svg>
